<?xml version="1.0" encoding="UTF-8"?>
<!-- Generator: visioncortex VTracer 0.6.3 -->
<svg version="1.1" xmlns="http://www.w3.org/2000/svg" width="1280" height="1280">
<path d="M0 0 C422.4 0 844.8 0 1280 0 C1280 422.4 1280 844.8 1280 1280 C857.6 1280 435.2 1280 0 1280 C0 857.6 0 435.2 0 0 Z M151 82 C153.7 85.37 155.64 87.72 158.81 90.38 C161.49 92.66 164.04 94.99 166.5 97.5 C168.83 99.87 171.22 102.09 173.75 104.25 C177.16 107.18 180.34 110.3 183.5 113.5 C186.53 116.57 189.58 119.58 192.88 122.38 C197.23 126.09 201.19 130.17 205.22 134.24 C208.7 137.74 212.27 141.06 216.04 144.26 C219.37 147.22 222.44 150.44 225.57 153.6 C227.61 155.62 229.69 157.51 231.88 159.38 C236 162.9 239.76 166.73 243.57 170.59 C246.98 174.02 250.49 177.27 254.18 180.4 C256.79 182.7 259.17 185.19 261.55 187.71 C262.93 189.22 262.93 189.22 265 189 C265.33 189.99 265.66 190.98 266 192 C267.42 193.44 267.42 193.44 269.25 194.88 C273.21 198.23 276.86 201.81 280.5 205.5 C284.53 209.58 288.6 213.49 292.98 217.2 C296.1 219.98 299 222.98 301.93 225.95 C304.54 228.58 307.18 231.1 310 233.5 C313.85 236.78 317.38 240.35 320.93 243.95 C324.13 247.18 327.44 250.17 330.9 253.12 C334.52 256.36 337.89 259.87 341.29 263.35 C342.63 264.66 342.63 264.66 344 266 C344.85 266.87 345.7 267.73 346.57 268.63 C350.61 271.93 354.58 271.7 359.61 271.64 C360.58 271.65 361.54 271.66 362.54 271.67 C365.79 271.69 369.04 271.67 372.29 271.66 C374.64 271.67 376.99 271.68 379.34 271.69 C385.13 271.72 390.92 271.72 396.7 271.71 C403.64 271.71 410.57 271.73 417.5 271.75 C431.88 271.79 446.25 271.8 460.62 271.8 C471.72 271.8 482.82 271.81 493.92 271.82 C497.12 271.83 500.31 271.83 503.51 271.84 C504.7 271.84 504.7 271.84 505.91 271.84 C528.25 271.87 550.59 271.88 572.93 271.88 C573.77 271.88 574.62 271.88 575.48 271.88 C579.75 271.88 584.02 271.87 588.29 271.87 C589.14 271.87 589.99 271.87 590.86 271.87 C592.58 271.87 594.29 271.87 596.01 271.87 C622.69 271.86 649.37 271.89 676.04 271.95 C706.01 272.02 735.98 272.06 765.95 272.05 C769.15 272.05 772.35 272.05 775.54 272.05 C776.33 272.05 777.11 272.05 777.93 272.05 C789.81 272.05 801.68 272.07 813.56 272.1 C827.08 272.14 840.59 272.15 854.1 272.12 C860.99 272.1 867.89 272.1 874.78 272.14 C881.1 272.17 887.41 272.17 893.72 272.13 C896 272.12 898.29 272.13 900.57 272.15 C914.35 272.74 914.35 272.74 926.16 266.66 C927.47 265.14 928.75 263.58 930 262 C931.41 260.72 932.85 259.47 934.31 258.25 C936.41 256.42 938.41 254.59 940.38 252.62 C944.42 248.58 948.73 244.81 953 241 C958.4 236.16 963.78 231.29 969.12 226.38 C972.99 222.82 976.89 219.33 980.86 215.89 C984.25 212.9 987.56 209.82 990.88 206.73 C993.18 204.6 995.39 202.74 998 201 C998 200.34 998 199.68 998 199 C998.87 198.61 998.87 198.61 999.77 198.21 C1002.15 196.92 1003.8 195.5 1005.76 193.62 C1006.46 192.95 1007.16 192.28 1007.89 191.59 C1008.63 190.88 1009.36 190.17 1010.12 189.44 C1011.66 187.98 1013.19 186.51 1014.73 185.05 C1015.47 184.35 1016.21 183.65 1016.97 182.92 C1020.9 179.2 1024.95 175.6 1029 172 C1030.67 170.5 1032.33 169 1034 167.5 C1034.82 166.77 1035.63 166.03 1036.48 165.27 C1038.22 163.7 1039.97 162.12 1041.71 160.54 C1043.03 159.34 1043.03 159.34 1044.38 158.12 C1045.17 157.41 1045.96 156.69 1046.77 155.95 C1049 154 1049 154 1051.29 152.37 C1051.85 151.92 1052.42 151.46 1053 151 C1053 150.34 1053 149.68 1053 149 C1053.87 148.61 1053.87 148.61 1054.76 148.22 C1057.17 146.91 1058.85 145.46 1060.82 143.56 C1061.87 142.56 1061.87 142.56 1062.94 141.54 C1064.02 140.5 1064.02 140.5 1065.12 139.44 C1066.56 138.06 1068 136.68 1069.45 135.31 C1070.08 134.7 1070.71 134.09 1071.37 133.46 C1073 132 1073 132 1075 131 C1075 130.34 1075 129.68 1075 129 C1075.56 128.75 1076.11 128.5 1076.69 128.25 C1080.33 126.28 1083.26 123.75 1086.17 120.82 C1089.65 117.35 1093.22 113.99 1096.81 110.62 C1097.49 109.99 1098.16 109.36 1098.85 108.7 C1102.86 104.95 1106.93 101.29 1111.07 97.69 C1114.07 95.07 1117.01 92.38 1119.94 89.69 C1120.8 88.9 1120.8 88.9 1121.68 88.1 C1124.75 85.37 1124.75 85.37 1127 82 C804.92 82 482.84 82 151 82 Z M82 140 C82 469.01 82 798.02 82 1137 C87.91 1131.93 87.91 1131.93 93.44 1126.56 C96.98 1122.96 100.66 1119.63 104.57 1116.41 C105.04 1115.94 105.51 1115.48 106 1115 C106 1114.34 106 1113.68 106 1113 C106.54 1112.79 107.08 1112.57 107.64 1112.35 C110.86 1110.51 113.26 1107.97 115.83 1105.33 C116.39 1104.77 116.94 1104.21 117.51 1103.63 C119.28 1101.84 121.05 1100.05 122.81 1098.25 C124.57 1096.47 126.32 1094.69 128.08 1092.91 C129.17 1091.81 130.26 1090.7 131.35 1089.59 C134.54 1086.35 137.88 1083.36 141.35 1080.42 C143.69 1078.4 145.84 1076.22 148 1074 C149.03 1072.96 150.07 1071.92 151.1 1070.88 C151.93 1070.04 151.93 1070.04 152.78 1069.19 C155.3 1066.66 157.81 1064.14 160.33 1061.62 C161.65 1060.29 162.96 1058.97 164.28 1057.64 C177.63 1044.21 177.63 1044.21 183.28 1039.51 C185.63 1037.45 187.8 1035.23 190 1033 C191.25 1031.75 192.5 1030.49 193.75 1029.24 C194.44 1028.54 195.13 1027.84 195.85 1027.12 C199 1023.96 202.16 1020.79 205.32 1017.63 C206.98 1015.96 208.63 1014.3 210.29 1012.63 C212.7 1010.21 215.11 1007.8 217.52 1005.38 C218.25 1004.65 218.98 1003.91 219.73 1003.15 C223.79 999.1 227.94 995.24 232.28 991.5 C234.21 989.82 236.03 988.07 237.82 986.25 C238.44 985.62 239.06 984.99 239.69 984.35 C240.31 983.72 240.93 983.09 241.56 982.44 C245.7 978.21 249.86 974.14 254.44 970.39 C256.12 968.89 257.51 967.3 258.94 965.56 C261 963.06 263.15 960.89 265.61 958.77 C266.31 958.16 267.01 957.55 267.74 956.92 C269.24 955.64 270.76 954.39 272.3 953.15 C280.77 946.29 288.56 939.76 290.05 928.47 C290.4 922.99 290.36 917.55 290.25 912.06 C290.26 909.57 290.29 907.08 290.32 904.59 C290.37 899.2 290.36 893.82 290.31 888.44 C290.23 880.43 290.25 872.42 290.29 864.41 C290.36 850.1 290.33 835.8 290.26 821.49 C290.19 808.98 290.17 796.46 290.18 783.95 C290.18 782.7 290.18 782.7 290.18 781.43 C290.18 778.05 290.18 774.67 290.18 771.3 C290.21 739.66 290.13 708.03 290.01 676.39 C289.9 648.3 289.86 620.21 289.89 592.12 C289.9 590.31 289.9 588.51 289.9 586.7 C289.9 585.37 289.9 585.37 289.9 584 C289.91 579.51 289.91 575.02 289.92 570.53 C289.92 569.64 289.92 568.75 289.92 567.84 C289.94 544.35 289.91 520.85 289.86 497.35 C289.86 494.83 289.85 492.3 289.84 489.77 C289.84 488.09 289.84 486.42 289.83 484.74 C289.81 473.06 289.81 461.37 289.82 449.69 C289.83 434.64 289.81 419.59 289.71 404.54 C289.67 396.58 289.65 388.63 289.68 380.67 C289.7 374.72 289.66 368.78 289.59 362.84 C289.57 360.44 289.58 358.04 289.6 355.63 C290.13 341.39 290.13 341.39 283.79 329.25 C281.33 326.93 278.76 324.97 276 323 C274.66 321.85 273.32 320.68 272 319.5 C271.38 318.97 270.76 318.45 270.12 317.91 C266.75 314.88 263.61 311.63 260.42 308.4 C257.09 305.05 253.66 301.9 250.06 298.84 C247.44 296.5 244.97 294 242.5 291.5 C239.49 288.45 236.46 285.46 233.19 282.69 C228.58 278.76 224.4 274.43 220.15 270.13 C216.47 266.42 212.71 262.88 208.72 259.5 C206.9 257.91 205.2 256.23 203.5 254.5 C201.25 252.21 198.95 250.07 196.5 248 C192.28 244.38 188.41 240.45 184.5 236.5 C180.08 232.04 175.66 227.67 170.84 223.63 C167.68 220.84 164.8 217.77 161.88 214.72 C160.18 212.77 160.18 212.77 158 213 C157.75 212.41 157.49 211.82 157.23 211.21 C155.86 208.76 154.47 207.46 152.31 205.69 C148.8 202.73 145.6 199.62 142.45 196.29 C141.07 194.78 141.07 194.78 139 195 C138.75 194.41 138.49 193.82 138.23 193.21 C136.86 190.76 135.47 189.46 133.31 187.69 C129.8 184.73 126.6 181.62 123.45 178.29 C122.07 176.78 122.07 176.78 120 177 C119.74 176.41 119.49 175.81 119.23 175.2 C117.87 172.77 116.52 171.51 114.38 169.75 C111.45 167.28 108.68 164.74 106 162 C103.48 159.44 100.92 157.02 98.19 154.69 C94.1 151.19 90.35 147.4 86.59 143.56 C85.41 142.35 84.21 141.17 83 140 C82.67 140 82.34 140 82 140 Z M1192.44 144.06 C1186.89 149.1 1181.35 154.13 1175.5 158.81 C1174.67 159.53 1173.85 160.26 1173 161 C1173 161.66 1173 162.32 1173 163 C1172.45 163.23 1171.9 163.46 1171.33 163.7 C1168.36 165.36 1166.17 167.43 1163.69 169.75 C1163.17 170.23 1162.66 170.7 1162.13 171.19 C1160.42 172.79 1158.71 174.4 1157 176 C1154.42 178.42 1151.83 180.83 1149.25 183.25 C1148.6 183.85 1147.96 184.46 1147.29 185.08 C1143.59 188.54 1139.86 191.93 1136.02 195.23 C1133.31 197.61 1130.65 200.06 1128 202.5 C1124.72 205.52 1121.43 208.52 1118.06 211.44 C1114.54 214.49 1111.11 217.64 1107.69 220.81 C1107.13 221.32 1106.58 221.84 1106.01 222.36 C1105.46 222.88 1104.9 223.39 1104.33 223.92 C1101.19 226.83 1098.04 229.73 1094.88 232.62 C1093.57 233.82 1093.57 233.82 1092.24 235.04 C1090 237 1090 237 1087 239 C1087 239.66 1087 240.32 1087 241 C1086.41 241.26 1085.83 241.53 1085.23 241.8 C1082.9 243.05 1081.29 244.41 1079.39 246.23 C1078.72 246.87 1078.04 247.51 1077.35 248.17 C1076.66 248.83 1075.96 249.5 1075.25 250.19 C1070.55 254.68 1065.8 259.09 1060.88 263.35 C1058.1 265.79 1055.39 268.3 1052.69 270.81 C1051.57 271.85 1050.45 272.88 1049.33 273.92 C1048.78 274.43 1048.23 274.94 1047.65 275.47 C1045.07 277.86 1042.47 280.25 1039.88 282.62 C1039.01 283.42 1038.14 284.22 1037.24 285.04 C1035 287 1035 287 1032 289 C1032 289.66 1032 290.32 1032 291 C1031.44 291.25 1030.89 291.5 1030.31 291.75 C1026.12 294.01 1022.87 297.11 1019.54 300.47 C1016.32 303.67 1012.99 306.76 1009.69 309.88 C1008.61 310.9 1008.61 310.9 1007.5 311.94 C994.99 323.73 994.99 323.73 989.92 326.97 C987.95 328.64 987.11 329.59 986.44 332.11 C986.22 334.81 986.19 337.46 986.23 340.17 C986.21 341.21 986.2 342.25 986.19 343.32 C986.16 346.82 986.18 350.33 986.19 353.83 C986.18 356.36 986.16 358.89 986.15 361.42 C986.12 366.92 986.11 372.43 986.11 377.94 C986.12 386.14 986.09 394.33 986.06 402.52 C985.99 418 985.97 433.49 985.97 448.97 C985.96 460.93 985.95 472.89 985.92 484.85 C985.92 488.29 985.91 491.73 985.91 495.17 C985.91 496.02 985.9 496.88 985.9 497.76 C985.86 521.83 985.83 545.89 985.83 569.96 C985.83 570.86 985.83 571.77 985.83 572.71 C985.83 577.31 985.83 581.91 985.83 586.51 C985.83 587.42 985.83 588.33 985.83 589.28 C985.83 591.12 985.83 592.97 985.83 594.82 C985.83 623.56 985.78 652.3 985.69 681.04 C985.59 713.32 985.53 745.61 985.53 777.89 C985.53 781.33 985.53 784.77 985.53 788.22 C985.53 789.06 985.53 789.91 985.53 790.79 C985.53 804.43 985.49 818.07 985.43 831.71 C985.37 845.42 985.37 859.13 985.41 872.84 C985.43 880.99 985.42 889.13 985.35 897.28 C985.31 903.36 985.33 909.45 985.38 915.53 C985.39 917.99 985.38 920.45 985.34 922.91 C984.69 936.29 984.69 936.29 989.86 948.11 C993.54 951.88 997.57 954.86 1002.35 957.1 C1004 958 1004 958 1005 961 C1006.62 962.65 1006.62 962.65 1008.62 964.25 C1011.37 966.57 1013.99 968.93 1016.5 971.5 C1019.59 974.65 1022.85 977.55 1026.2 980.42 C1028 982 1028 982 1029.61 983.7 C1030.93 985.23 1030.93 985.23 1033 985 C1033.49 986.49 1033.49 986.49 1034 988 C1035.35 989.41 1035.35 989.41 1037.12 990.81 C1041.45 994.48 1045.61 998.31 1049.75 1002.19 C1050.72 1003.1 1050.72 1003.1 1051.72 1004.02 C1054.31 1006.45 1056.87 1008.86 1059.33 1011.43 C1060.86 1013.23 1060.86 1013.23 1063 1013 C1063.49 1014.49 1063.49 1014.49 1064 1016 C1065.62 1017.65 1065.62 1017.65 1067.62 1019.25 C1070.37 1021.57 1072.99 1023.93 1075.5 1026.5 C1077.82 1028.87 1080.21 1031.09 1082.72 1033.25 C1087.61 1037.5 1092.3 1041.94 1097 1046.39 C1100.33 1049.54 1103.69 1052.63 1107.16 1055.62 C1110.42 1058.46 1113.48 1061.41 1116.5 1064.5 C1120.31 1068.37 1124.21 1072.05 1128.35 1075.56 C1130 1077 1130 1077 1132.38 1079.44 C1133.86 1081.23 1133.86 1081.23 1136 1081 C1136.33 1081.99 1136.66 1082.98 1137 1084 C1138.62 1085.65 1138.62 1085.65 1140.62 1087.25 C1143.37 1089.57 1145.99 1091.93 1148.5 1094.5 C1151.59 1097.65 1154.85 1100.55 1158.2 1103.42 C1160 1105 1160 1105 1161.61 1106.7 C1162.93 1108.23 1162.93 1108.23 1165 1108 C1165.39 1108.9 1165.39 1108.9 1165.79 1109.81 C1167.08 1112.15 1168.27 1113.32 1170.31 1115 C1174.16 1118.25 1177.87 1121.63 1181.56 1125.06 C1185.07 1128.32 1188.58 1131.55 1192.25 1134.62 C1195 1137 1195 1137 1196 1139 C1196.66 1139 1197.32 1139 1198 1139 C1198 809.33 1198 479.66 1198 140 C1195.9 140 1193.86 142.77 1192.44 144.06 Z M377 360 C377 542.82 377 725.64 377 914 C548.93 914 720.86 914 898 914 C898 731.18 898 548.36 898 360 C726.07 360 554.14 360 377 360 Z M333.63 1016.12 C331.14 1018.99 328.41 1021.6 325.69 1024.25 C323.3 1026.65 320.93 1029.06 318.55 1031.47 C309.41 1040.72 309.41 1040.72 305.1 1044.4 C299.21 1049.43 293.87 1055.06 288.44 1060.56 C282.14 1066.94 275.88 1073.23 269 1079 C268 1080.13 267.02 1081.28 266.06 1082.44 C264.04 1084.88 261.99 1086.94 259.56 1088.97 C253.74 1094 248.4 1099.53 243 1105 C240.92 1107.11 238.84 1109.21 236.75 1111.31 C236.25 1111.81 235.76 1112.31 235.24 1112.83 C231.79 1116.28 228.21 1119.52 224.43 1122.6 C222.73 1124.05 222.73 1124.05 222 1127 C221.44 1127.27 220.88 1127.55 220.3 1127.83 C217.01 1129.5 214.71 1132.06 212.17 1134.67 C211.34 1135.51 211.34 1135.51 210.49 1136.37 C208.72 1138.16 206.95 1139.95 205.19 1141.75 C203.43 1143.53 201.68 1145.31 199.92 1147.09 C198.83 1148.19 197.74 1149.3 196.65 1150.41 C193.37 1153.74 189.96 1156.78 186.31 1159.71 C185.88 1160.14 185.45 1160.56 185 1161 C185 1161.66 185 1162.32 185 1163 C184.4 1163.27 183.81 1163.54 183.19 1163.82 C181.02 1164.99 179.61 1166.14 177.88 1167.87 C177.3 1168.45 176.72 1169.03 176.13 1169.62 C175.2 1170.55 175.2 1170.55 174.27 1171.5 C173.63 1172.14 172.99 1172.78 172.33 1173.44 C170.99 1174.79 169.65 1176.13 168.31 1177.49 C166.25 1179.56 164.18 1181.63 162.11 1183.7 C160.81 1185.01 159.51 1186.32 158.2 1187.63 C157.58 1188.25 156.96 1188.87 156.32 1189.52 C153.39 1191.89 153.39 1191.89 152 1195 C473.42 1195 794.84 1195 1126 1195 C1123.53 1192.53 1123.53 1192.53 1121 1190 C1120.43 1189.41 1119.85 1188.83 1119.26 1188.23 C1115.64 1184.54 1111.88 1181.12 1107.97 1177.75 C1105.46 1175.52 1103.13 1173.14 1100.78 1170.75 C1098.92 1168.92 1096.98 1167.21 1095 1165.5 C1091.77 1162.72 1088.77 1159.79 1085.78 1156.75 C1083.92 1154.92 1081.98 1153.21 1080 1151.5 C1077.39 1149.25 1074.91 1146.95 1072.5 1144.5 C1068.84 1140.79 1064.95 1137.39 1061 1134 C1056.51 1130.13 1052.14 1126.25 1048 1122 C1044.49 1118.4 1040.94 1114.9 1037.12 1111.62 C1033.38 1108.4 1029.91 1104.95 1026.47 1101.41 C1024.45 1099.43 1022.39 1097.58 1020.26 1095.73 C1015.05 1091.21 1010.08 1086.45 1005.09 1081.7 C1001.5 1078.3 997.91 1075.04 994 1072 C991.77 1069.82 989.59 1067.6 987.41 1065.37 C983.74 1061.65 979.93 1058.16 975.97 1054.75 C974.07 1053.06 972.28 1051.31 970.5 1049.5 C968.11 1047.07 965.65 1044.79 963.06 1042.56 C960.25 1040.14 957.6 1037.64 955 1035 C951.17 1031.12 947.14 1027.54 943 1024 C938.51 1020.13 934.14 1016.24 930 1012 C928.61 1010.58 927.21 1009.16 925.81 1007.75 C924.8 1006.72 924.8 1006.72 923.77 1005.67 C919.98 1002.09 915.79 1002.84 910.87 1002.84 C909.9 1002.83 908.94 1002.82 907.95 1002.82 C904.68 1002.8 901.42 1002.79 898.15 1002.78 C895.8 1002.77 893.45 1002.76 891.1 1002.74 C885.3 1002.72 879.49 1002.69 873.69 1002.67 C868.86 1002.65 864.03 1002.63 859.2 1002.61 C805.97 1002.38 752.73 1002.25 699.49 1002.15 C691.77 1002.13 684.06 1002.12 676.34 1002.1 C675.06 1002.1 675.06 1002.1 673.76 1002.1 C646.14 1002.04 618.52 1001.93 590.91 1001.8 C562.51 1001.66 534.12 1001.58 505.73 1001.55 C501.71 1001.55 497.7 1001.54 493.69 1001.54 C492.5 1001.54 492.5 1001.54 491.29 1001.54 C478.6 1001.52 465.9 1001.45 453.21 1001.37 C440.43 1001.28 427.66 1001.25 414.89 1001.28 C407.97 1001.29 401.06 1001.28 394.14 1001.2 C387.8 1001.13 381.46 1001.13 375.13 1001.18 C372.84 1001.19 370.55 1001.17 368.26 1001.12 C352.33 1000.82 344.06 1003.86 333.63 1016.12 Z " fill="#000000" transform="translate(0,0)"/>
</svg>
